<?xml version="1.0" encoding="utf-8"?>
<!-- Generator: Adobe Illustrator 25.3.1, SVG Export Plug-In . SVG Version: 6.00 Build 0)  -->
<svg version="1.1" id="Layer_1" xmlns="http://www.w3.org/2000/svg" xmlns:xlink="http://www.w3.org/1999/xlink" x="0px" y="0px"
	 viewBox="0 0 50 27" style="enable-background:new 0 0 50 27;" xml:space="preserve">
<style type="text/css">
	.st0{fill:#111111;}
	.st1{fill:#3C3C3C;}
</style>
<path class="st0" d="M47,27H3c-1.7,0-3-1.3-3-3V3c0-1.7,1.3-3,3-3h44c1.7,0,3,1.3,3,3v21C50,25.7,48.7,27,47,27z"/>
<g>
	<path class="st1" d="M43.6,16.5c-0.5,0-0.9-0.1-1.2-0.3s-0.6-0.4-0.8-0.7s-0.3-0.7-0.3-1.1c0-0.2,0-0.4,0-0.6c0-0.3,0-0.6,0-0.9
		c0-0.4,0.1-0.8,0.3-1.1c0.2-0.3,0.5-0.6,0.8-0.7c0.3-0.2,0.8-0.3,1.2-0.3c0.4,0,0.7,0.1,1,0.2c0.3,0.1,0.5,0.2,0.7,0.4
		c0.2,0.2,0.3,0.3,0.4,0.5c0.1,0.2,0.1,0.4,0.2,0.5c0,0,0,0.1,0,0.1c0,0-0.1,0-0.1,0H45c-0.1,0-0.1,0-0.1,0c0,0-0.1-0.1-0.1-0.1
		c0-0.1-0.1-0.2-0.2-0.3s-0.2-0.2-0.4-0.3s-0.4-0.1-0.6-0.1c-0.4,0-0.6,0.1-0.9,0.3c-0.2,0.2-0.3,0.5-0.3,0.9c0,0.6,0,1,0,1.4
		c0,0.4,0.1,0.8,0.4,1s0.5,0.3,0.9,0.3c0.2,0,0.4,0,0.6-0.1c0.2-0.1,0.3-0.2,0.4-0.4c0.1-0.2,0.2-0.4,0.2-0.7v-0.1h-1
		c-0.1,0-0.1,0-0.1-0.1c0,0-0.1-0.1-0.1-0.1v-0.5c0-0.1,0-0.1,0.1-0.1c0,0,0.1-0.1,0.1-0.1h1.9c0.1,0,0.1,0,0.1,0.1
		c0,0,0.1,0.1,0.1,0.2v0.7c0,0.4-0.1,0.7-0.3,1.1c-0.2,0.3-0.5,0.6-0.8,0.7C44.5,16.4,44.1,16.5,43.6,16.5 M38.4,16.3
		c0.4-0.2,0.6-0.4,0.8-0.7c0.2-0.3,0.3-0.6,0.3-1.1v-0.8c0-0.1,0-0.1-0.1-0.1c0,0-0.1-0.1-0.1-0.1h-1.9c-0.1,0-0.1,0-0.1,0.1
		c0,0-0.1,0.1-0.1,0.1v0.5c0,0.1,0,0.1,0.1,0.1c0,0,0.1,0.1,0.1,0.1h1v0.1c0,0.3-0.1,0.4-0.2,0.6c-0.1,0.2-0.3,0.3-0.4,0.4
		c-0.2,0.1-0.4,0.1-0.6,0.1c-0.4,0-0.6-0.1-0.9-0.3c-0.2-0.2-0.3-0.5-0.4-1c0-0.5,0-0.9,0-1.4c0-0.4,0.1-0.8,0.3-0.9
		c0.2-0.2,0.5-0.3,0.9-0.3c0.2,0,0.4,0,0.6,0.1c0.2,0.1,0.3,0.2,0.4,0.3s0.2,0.2,0.2,0.3c0,0,0,0.1,0.1,0.1s0.1,0,0.1,0h0.8
		c0.1,0,0.1,0,0.1,0c0,0,0-0.1,0-0.1c0-0.2-0.1-0.3-0.2-0.5c-0.1-0.2-0.2-0.4-0.4-0.5c-0.2-0.2-0.4-0.3-0.7-0.4
		c-0.3-0.1-0.6-0.2-1-0.2c-0.5,0-0.9,0.1-1.2,0.3c-0.3,0.2-0.6,0.4-0.8,0.7c-0.2,0.3-0.3,0.7-0.3,1.1c0,0.2,0,0.5,0,0.7s0,0.5,0,0.7
		c0,0.4,0.1,0.8,0.3,1.1s0.5,0.6,0.8,0.7c0.3,0.2,0.8,0.3,1.2,0.3S38,16.4,38.4,16.3 M31.6,14.4h-1.7l0.9-2.4L31.6,14.4z M33.3,16.3
		C33.3,16.3,33.3,16.2,33.3,16.3l-1.9-5.2c0-0.1-0.1-0.1-0.1-0.1c0,0-0.1-0.1-0.2-0.1h-0.9c-0.1,0-0.1,0-0.2,0.1
		c0,0-0.1,0.1-0.1,0.1l-1.9,5.1c0,0,0,0.1,0,0.1c0,0,0,0.1,0.1,0.1c0,0,0.1,0,0.1,0h0.7c0.1,0,0.1,0,0.2-0.1c0,0,0.1-0.1,0.1-0.1
		l0.4-1h2.3l0.4,1c0,0,0,0.1,0.1,0.1c0,0,0.1,0.1,0.2,0.1h0.7c0,0,0.1,0,0.1,0C33.3,16.4,33.3,16.3,33.3,16.3 M24.9,12
		c-0.2-0.1-0.4-0.2-0.7-0.2h-1.1v1.7h1.1c0.3,0,0.6-0.1,0.7-0.2c0.2-0.1,0.2-0.3,0.2-0.6C25.1,12.4,25.1,12.2,24.9,12 M26.4,16.3
		c0,0,0,0.1-0.1,0.1s-0.1,0-0.1,0h-0.7c-0.1,0-0.2,0-0.2-0.1c0,0-0.1-0.1-0.1-0.1l-1-1.9h-1.1v1.9c0,0.1,0,0.1-0.1,0.1
		c0,0-0.1,0.1-0.1,0.1h-0.7c-0.1,0-0.1,0-0.1-0.1c0,0-0.1-0.1-0.1-0.1v-5.1c0-0.1,0-0.1,0.1-0.1c0,0,0.1-0.1,0.1-0.1h2
		c0.6,0,1.1,0.1,1.5,0.4c0.4,0.3,0.6,0.7,0.6,1.3c0,0.4-0.1,0.7-0.3,1c-0.2,0.3-0.4,0.4-0.8,0.6L26.4,16.3
		C26.4,16.2,26.4,16.3,26.4,16.3 M18.7,14.8c0,0.2-0.1,0.4-0.2,0.6c-0.1,0.2-0.4,0.2-0.6,0.2h-1.3V14h1.3c0.3,0,0.5,0.1,0.6,0.2
		C18.6,14.4,18.7,14.6,18.7,14.8 M18.6,12.5c0,0.2-0.1,0.4-0.2,0.5s-0.3,0.2-0.6,0.2h-1.2v-1.4h1.2c0.3,0,0.5,0.1,0.6,0.2
		S18.6,12.2,18.6,12.5 M19.6,13c0.1-0.1,0.1-0.3,0.1-0.5c0-0.3-0.1-0.6-0.2-0.8s-0.3-0.4-0.6-0.5c-0.3-0.1-0.6-0.2-1-0.2h-2.3
		c-0.1,0-0.1,0-0.1,0.1c0,0-0.1,0.1-0.1,0.1v5.1c0,0.1,0,0.1,0.1,0.1c0,0,0.1,0.1,0.1,0.1h2.4c0.4,0,0.8-0.1,1-0.2
		c0.3-0.1,0.5-0.3,0.6-0.6c0.1-0.2,0.2-0.5,0.2-0.8c0-0.3-0.1-0.6-0.2-0.8c-0.2-0.2-0.3-0.4-0.5-0.5c0.1-0.1,0.2-0.1,0.3-0.2
		S19.5,13.1,19.6,13"/>
	<path id="Bragg_Logo_Spade" class="st1" d="M10.4,13.5H9.7v-0.6h0.6C10.7,12.9,10.7,13.5,10.4,13.5z M10.4,13.9H9.7v0.7h0.7
		C10.8,14.6,10.8,13.9,10.4,13.9z M12.5,14.7c0,0.2-0.1,0.4-0.2,0.5l-1.9,1.5c-0.1,0.1-0.3,0.1-0.4,0l-1.4-1.1v0.7
		c0,0.1,0.1,0.3,0.2,0.4l0.8,0.7C9.9,17.6,9.7,18,9.4,18H7.1c-0.3,0-0.5-0.4-0.2-0.6l0.8-0.7c0.1-0.1,0.2-0.2,0.2-0.4v-0.7l-1.4,1.1
		c-0.1,0.1-0.3,0.1-0.4,0l-1.8-1.5C4.1,15.1,4,14.9,4,14.7v-2.1c0-0.1,0.1-0.3,0.2-0.4l3.9-3.2C8.2,9,8.3,9,8.4,9.1l3.9,3.2
		c0.1,0.1,0.2,0.2,0.2,0.4L12.5,14.7L12.5,14.7z M7.9,13.8l-2.2,1.8l0.5,0.4c0.1,0,0.1,0,0.2,0l1.4-1.2c0,0,0.1-0.1,0.1-0.2
		C7.9,14.6,7.9,13.8,7.9,13.8z M7.9,12l-3.2,2.6c-0.1,0-0.1,0.1,0,0.2l0.4,0.4l2.6-2.2c0,0,0.1-0.1,0.1-0.2L7.9,12L7.9,12z
		 M7.9,10.1l-3.1,2.6c0,0-0.1,0.1-0.1,0.2v0.8l3.1-2.6c0,0,0.1-0.1,0.1-0.2L7.9,10.1L7.9,10.1z M10.8,13.7c0.4-0.2,0.4-1.1-0.4-1.1
		H9.3v2.4h1.1C11.3,14.9,11.4,13.9,10.8,13.7L10.8,13.7z"/>
</g>
</svg>
