<?xml version="1.0" encoding="utf-8"?>
<!-- Generator: Adobe Illustrator 25.3.1, SVG Export Plug-In . SVG Version: 6.00 Build 0)  -->
<svg version="1.1" xmlns="http://www.w3.org/2000/svg" xmlns:xlink="http://www.w3.org/1999/xlink" x="0px" y="0px"
	 viewBox="0 0 441.91 577.08" style="enable-background:new 0 0 441.91 577.08;" xml:space="preserve">
<style type="text/css">
	.st0{fill:#FFFFFF;}
	.st1{fill:#FFE7B4;}
</style>
<g id="Background">
</g>
<g id="Graphic">
	<g>
		<path class="st0" d="M118.33,555.97c4.66,11.6-178.63-130.46-97.65-237.17C101.66,212.09,267.19,162.69,183.28,0
			c0,0,201,74.81-33.38,319.59C63.33,410.01,77.46,454.28,118.33,555.97z"/>
		<path class="st1" d="M177.55,551.47c-62.57-36.48-81.17-120.53-24.78-193.7c51.79-67.21,123.88-118.77,140.46-220.49
			c0,0,73.38,121.75-0.07,204.1c-57.22,64.16-56.98,94.91-34.9,109.95c38.59,26.28,143.11-45.86,114.69-179.99
			c0,0,91.56,52.96,63.67,162.28C409.92,538.25,296.65,620.91,177.55,551.47z"/>
	</g>
</g>
</svg>
