<?xml version="1.0" encoding="utf-8"?>
<!-- Generator: Adobe Illustrator 25.3.1, SVG Export Plug-In . SVG Version: 6.00 Build 0)  -->
<svg version="1.1" id="Layer_2" xmlns="http://www.w3.org/2000/svg" xmlns:xlink="http://www.w3.org/1999/xlink" x="0px" y="0px"
	 viewBox="0 0 217.88 174.51" style="enable-background:new 0 0 217.88 174.51;" xml:space="preserve">
<style type="text/css">
	.st0{fill-rule:evenodd;clip-rule:evenodd;fill:#FFFFFF;}
	.st1{fill-rule:evenodd;clip-rule:evenodd;fill:#231F20;}
	.st2{fill-rule:evenodd;clip-rule:evenodd;fill:#FFE7B4;}
</style>
<g>
	<g>
		<path class="st0" d="M214.18,91.92c0.06,0.81,0.09,1.62,0.09,2.43c0,17.2-12.53,32.39-32.8,43.04
			c-18.92,9.95-44.9,16.11-73.43,16.11s-54.51-6.16-73.43-16.11C15.27,127.23,2.98,112.92,1.9,96.68c-1.24,3.96-1.9,8.05-1.9,12.24
			c0,36.21,48.78,65.58,108.94,65.58c60.16,0,108.94-29.37,108.94-65.58C217.88,103.04,216.59,97.35,214.18,91.92z"/>
	</g>
	<path class="st1" d="M105.81,52.22c-1,3.22-1.81,7.05-2.4,11.32c1.53-0.07,3.08-0.11,4.64-0.11c2.01,0,3.99,0.06,5.94,0.17
		c-0.59-4.29-1.41-8.14-2.41-11.38c-1.11-3.58-2-6.11-2.51-7.1c-0.24,0-0.49,0-0.73,0C107.81,46.1,106.92,48.63,105.81,52.22z"/>
	<path class="st2" d="M108.69,38.11c7.11,0,12.88,18.64,12.88,41.62c0,6.25-0.43,12.17-1.19,17.49H96.99
		c-0.76-5.32-1.19-11.24-1.19-17.49C95.8,56.75,101.57,38.11,108.69,38.11"/>
	<path class="st2" d="M108.69,17.97c6.62,0,11.99,5.37,11.99,11.99c0,6.62-5.37,11.99-11.99,11.99c-6.62,0-11.99-5.37-11.99-11.99
		C96.7,23.34,102.07,17.97,108.69,17.97"/>
	<path class="st2" d="M69.64,29.93c0-3.6,9.42-6.51,21.04-6.51c3.16,0,6.15,0.22,8.84,0.6v11.82c-2.69,0.39-5.68,0.6-8.84,0.6
		C79.06,36.44,69.64,33.52,69.64,29.93"/>
	<path class="st2" d="M147.46,29.84c0-3.6-9.42-6.51-21.04-6.51c-3.16,0-6.15,0.22-8.84,0.6v11.82c2.69,0.39,5.68,0.6,8.84,0.6
		C138.04,36.35,147.46,33.43,147.46,29.84"/>
	<path class="st0" d="M108.57,0c6.16,0,11.16,5,11.16,11.16c0,1.5-0.3,2.92-0.83,4.23H98.25c-0.53-1.3-0.83-2.73-0.83-4.23
		C97.42,5,102.41,0,108.57,0"/>
	<path class="st0" d="M171.39,96.09c6.9,0,12.5,5.6,12.5,12.5c0,6.9-5.6,12.5-12.5,12.5c-6.9,0-12.5-5.6-12.5-12.5
		C158.89,101.69,164.49,96.09,171.39,96.09z"/>
	<g>
		<path class="st2" d="M171.39,128.27c-10.68,0-19.39-8.56-19.65-19.19c-9.92,7.02-25.8,11.56-43.69,11.56
			c-30.04,0-54.41-12.81-54.41-28.61c0-12.49,15.22-23.1,36.43-27.01c0.7-6.28,1.83-11.95,3.28-16.64c0.3-0.95,0.62-1.86,0.95-2.75
			C49.1,49.14,14.4,69.62,14.4,94.36c0,27.19,41.93,49.25,93.64,49.25c27.76,0,52.7-6.36,69.85-16.46
			C175.86,127.86,173.67,128.27,171.39,128.27z"/>
		<path class="st2" d="M123.12,45.75c0.32,0.85,0.62,1.73,0.91,2.64c1.47,4.75,2.61,10.52,3.31,16.89
			c19.99,3.99,34.36,14,35.08,25.82c2.69-1.39,5.74-2.19,8.97-2.19c10.85,0,19.68,8.83,19.68,19.68c0,4.89-1.8,9.36-4.76,12.8
			c9.72-7.76,15.38-17.05,15.38-27.04C201.69,69.86,167.66,49.54,123.12,45.75z"/>
	</g>
</g>
</svg>
