<?xml version="1.0" encoding="utf-8"?>
<!-- Generator: Adobe Illustrator 25.2.3, SVG Export Plug-In . SVG Version: 6.00 Build 0)  -->
<svg version="1.1" id="Layer_1" xmlns="http://www.w3.org/2000/svg" xmlns:xlink="http://www.w3.org/1999/xlink" x="0px" y="0px"
	 viewBox="0 0 31 25" style="enable-background:new 0 0 31 25;" xml:space="preserve">
<style type="text/css">
	.st0{fill:#FFFFFF;}
	.st1{fill:#FFE7B4;}
</style>
<g>
	<g>
		<path class="st0" d="M29.5,4.3L18.9,1.4c-1-0.2-2.1,0.4-2.5,1.4l-0.3,1.3l3.8,14.2c0.5,1.5-0.5,3-2,3.4l-0.7,0.2l7.1,1.8
			c1,0.3,2.1-0.3,2.5-1.4l4.1-15.6C31.2,5.7,30.6,4.6,29.5,4.3L29.5,4.3z"/>
	</g>
	<path class="st1" d="M18.7,18.3L14.5,2.6c-0.3-1-1.4-1.7-2.5-1.4L1.5,4.1C0.4,4.4-0.3,5.5,0.1,6.6l4.2,15.6
		c0.2,1.1,1.3,1.8,2.5,1.4l10.6-2.8C18.4,20.5,19,19.3,18.7,18.3z M11.7,14.5c-0.6,0.2-1,0.1-1.5-0.1l1.2,1.7l0.1,0.4l-1.8,0.5
		l-0.2-0.4l0.2-2.1c-0.3,0.4-0.8,0.7-1.3,0.9c-1.3,0.3-2.7-0.4-3-1.8c-0.7-2.3,2.3-4.3,2.6-5.5L8.3,8c1,0.9,4.4,1.1,5.1,3.5
		C13.7,12.8,12.9,14.2,11.7,14.5z"/>
</g>
</svg>
