<?xml version="1.0" encoding="utf-8"?>
<!-- Generator: Adobe Illustrator 25.2.3, SVG Export Plug-In . SVG Version: 6.00 Build 0)  -->
<svg version="1.1" xmlns="http://www.w3.org/2000/svg" xmlns:xlink="http://www.w3.org/1999/xlink" x="0px" y="0px"
	 viewBox="0 0 100 125" style="enable-background:new 0 0 100 125;" xml:space="preserve">
<style type="text/css">
	.st0{fill:#FFFFFF;}
</style>
<g id="Layer_2">
</g>
<g id="Layer_1">
	<path class="st0" d="M97.5,50C97.5,23.8,76.2,2.5,50,2.5S2.5,23.8,2.5,50S23.8,97.5,50,97.5S97.5,76.2,97.5,50z M40.4,70.7
		c-0.7-0.7-1-1.5-1-2.4s0.3-1.8,1-2.4L56.2,50L40.4,34.2c-1.3-1.3-1.3-3.5,0-4.8s3.5-1.3,4.8,0l18.3,18.3c1.3,1.3,1.3,3.5,0,4.8
		L45.2,70.7C43.9,72,41.7,72,40.4,70.7z"/>
</g>
</svg>
