<?xml version="1.0" encoding="utf-8"?>
<!-- Generator: Adobe Illustrator 25.3.1, SVG Export Plug-In . SVG Version: 6.00 Build 0)  -->
<svg version="1.1" id="Layer_1" xmlns="http://www.w3.org/2000/svg" xmlns:xlink="http://www.w3.org/1999/xlink" x="0px" y="0px"
	 viewBox="0 0 200 193.57" style="enable-background:new 0 0 200 193.57;" xml:space="preserve">
<style type="text/css">
	.st0{fill:#fff;}
</style>
<g>
	<g>
		<path class="st0" d="M123.75,193.57H0v-26.96c0-40.34,32.7-73.04,73.04-73.04h16.42c15.08,0,29.13,4.33,41.04,11.87
			c-15.75,9.46-26.33,26.75-26.33,46.46C104.17,168.66,111.79,183.66,123.75,193.57z"/>
	</g>
	<g>
		<g>
			<path class="st0" d="M158.33,110.24c-22.96,0-41.67,18.71-41.67,41.67c0,22.96,18.71,41.67,41.67,41.67S200,174.86,200,151.91
				C200,128.95,181.29,110.24,158.33,110.24z M179.17,158.16h-14.58v14.58c0,3.46-2.79,6.25-6.25,6.25c-3.46,0-6.25-2.79-6.25-6.25
				v-14.58H137.5c-3.46,0-6.25-2.79-6.25-6.25c0-3.46,2.79-6.25,6.25-6.25h14.58v-14.58c0-3.46,2.79-6.25,6.25-6.25
				c3.46,0,6.25,2.79,6.25,6.25v14.58h14.58c3.46,0,6.25,2.79,6.25,6.25C185.42,155.36,182.63,158.16,179.17,158.16z"/>
		</g>
	</g>
	<g>
		<g>
			<path class="st0" d="M83.33,0C60.38,0,41.67,18.71,41.67,41.67c0,22.96,18.71,41.67,41.67,41.67S125,64.63,125,41.67
				C125,18.71,106.29,0,83.33,0z"/>
		</g>
	</g>
</g>
</svg>
