<?xml version="1.0" encoding="utf-8"?>
<!-- Generator: Adobe Illustrator 25.3.1, SVG Export Plug-In . SVG Version: 6.00 Build 0)  -->
<svg version="1.1" id="Layer_2" xmlns="http://www.w3.org/2000/svg" xmlns:xlink="http://www.w3.org/1999/xlink" x="0px" y="0px"
	 viewBox="0 0 244.89 144.42" style="enable-background:new 0 0 244.89 144.42;" xml:space="preserve">
<style type="text/css">
	.st0{fill:#FFFFFF;}
	.st1{fill:#FFE7B4;}
</style>
<g>
	<g>
		<polygon class="st0" points="0,56.72 0,87.66 26.8,72.19 		"/>
		<path class="st1" d="M206.51,102.69h-48.04V41.7h48.04v25.64l12-6.93V35.7c0-3.31-2.69-6-6-6H32.38c-3.31,0-6,2.69-6,6V60.4
			l12,6.93V41.7h48.04v60.99H38.38V77.05l-12,6.93v24.71c0,3.31,2.69,6,6,6h180.12c3.31,0,6-2.69,6-6V83.98l-12-6.93V102.69z
			 M146.46,102.69H98.42V41.7h48.04V102.69z"/>
		<polygon class="st0" points="218.09,72.19 244.89,87.66 244.89,56.72 		"/>
		<path class="st1" d="M67.86,136.21c17.25,5.33,35.58,8.21,54.58,8.21c19,0,37.33-2.88,54.58-8.21v-11.46H67.86V136.21z"/>
		<path class="st1" d="M177.03,8.21C159.77,2.88,141.45,0,122.44,0c-19,0-37.33,2.88-54.58,8.21v11.46h109.17V8.21z"/>
	</g>
	<g>
		<path class="st0" d="M75.63,60.51L62.47,92.07h-9.18L66.61,61.5H50.3v-7.65h25.33V60.51z"/>
	</g>
	<g>
		<path class="st0" d="M135.11,60.51l-13.16,31.57h-9.18l13.32-30.57h-16.31v-7.65h25.33V60.51z"/>
	</g>
	<g>
		<path class="st0" d="M195.17,60.51l-13.16,31.57h-9.18l13.32-30.57h-16.31v-7.65h25.33V60.51z"/>
	</g>
</g>
</svg>
